# xmcd
#
# Track frame offsets:
#	150
#	15318
#	33211
#	53700
#	71481
#	86877
#	102268
#	118966
#	131518
#	150156
#
# Disc length: 2267 seconds
#
# Revision: 1
# Processed by: cddbd v1.5.1PL0 Copyright (c) Steve Scherf et al.
# Submitted via: EasyCDDAExtractor 6.2.0.3
#
DISCID=7508d90a
DTITLE=Heather Waters - shadow of you
DYEAR=2004
DGENRE=Bluegrass
TTITLE0=Brown Jacket
TTITLE1=Shadow of You
TTITLE2=Turn
TTITLE3=Josephine
TTITLE4=You Just Don't Love Me
TTITLE5=Hush
TTITLE6=Alone in Tennessee
TTITLE7=Apalachicola
TTITLE8=Comin' Home
TTITLE9=A River I Can't Cross
EXTD=
EXTT0=
EXTT1=
EXTT2=
EXTT3=
EXTT4=
EXTT5=
EXTT6=
EXTT7=
EXTT8=
EXTT9=
PLAYORDER=
